Coordinates
version=1
nRows=17
nColumns=40
inDegrees=yes

Units are S.I. units (second, meters, Newtons, ...)
Angles are in degrees.

endheader
time	pelvis_tilt	pelvis_list	pelvis_rotation	pelvis_tx	pelvis_ty	pelvis_tz	hip_flexion_r	hip_adduction_r	hip_rotation_r	knee_angle_r	knee_angle_r_beta	ankle_angle_r	subtalar_angle_r	mtp_angle_r	hip_flexion_l	hip_adduction_l	hip_rotation_l	knee_angle_l	knee_angle_l_beta	ankle_angle_l	subtalar_angle_l	mtp_angle_l	lumbar_extension	lumbar_bending	lumbar_rotation	arm_flex_r	arm_add_r	arm_rot_r	elbow_flex_r	pro_sup_r	wrist_flex_r	wrist_dev_r	arm_flex_l	arm_add_l	arm_rot_l	elbow_flex_l	pro_sup_l	wrist_flex_l	wrist_dev_l
     51.51500000	     -2.40963729	     -3.05124584	     -2.17604557	      1.10839252	      0.92895474	      0.47804235	     18.48870938	     -0.37754086	     -8.53401448	     19.85680372	     19.85680372	      6.00724707	     -0.84022082	     -4.70363920	      3.91697577	     -9.19860853	    -10.71487124	     29.66338008	     29.66338008	     16.81864866	     -8.80001541	     -3.36339887	     -8.44815675	      4.60829458	      0.38882124	     -2.47410646	    -13.89283111	     -0.53537664	     29.79421884	     45.90885799	      0.00000000	      0.00000000	     11.38661235	    -13.99603967	    -13.71908970	     54.27806545	     46.89633826	      0.00000000	      0.00000000
     51.52828571	     -2.43259878	     -3.19884485	     -1.73090750	      1.10810944	      0.92942672	      0.48085946	     17.89922908	     -0.12332566	     -9.09440505	     19.46718747	     19.46718747	      6.23733422	     -0.59878137	     -4.90679465	      5.91155634	     -9.94219923	     -9.39167731	     33.55813311	     33.55813311	     15.29047754	    -10.41534017	     -4.42252513	     -8.38034146	      4.84114236	      0.16645297	     -0.70354340	    -14.09630847	     -0.64203946	     30.67425730	     45.89619212	      0.00000000	      0.00000000	     10.85735135	    -13.58401561	    -13.09250313	     52.06705869	     46.81284684	      0.00000000	      0.00000000
     51.54157143	     -2.39304664	     -3.36509270	     -1.25442558	      1.10759826	      0.92990333	      0.48350884	     17.23676383	      0.13466927	     -9.74514861	     19.04531570	     19.04531570	      6.48278266	     -0.25521524	     -5.18375699	      8.02560863	    -10.64680396	     -7.97720517	     37.61345697	     37.61345697	     13.44046211	    -11.98423488	     -5.43574098	     -8.41365985	      5.11932011	      0.11263719	      1.10393304	    -14.33979516	     -0.73318220	     31.63402075	     45.87878199	      0.00000000	      0.00000000	     10.50825664	    -13.13695749	    -12.37913881	     49.76702748	     46.72191881	      0.00000000	      0.00000000
     51.55485714	     -2.20881023	     -3.56072076	     -0.82933022	      1.10691575	      0.93051487	      0.48613980	     16.48703756	      0.42892705	    -10.38063314	     18.71458016	     18.71458016	      6.62913638	      0.07252188	     -5.37517568	     10.06706742	    -11.34984362	     -6.63698028	     41.68935523	     41.68935523	     11.57648703	    -13.16797286	     -6.00480902	     -8.72331739	      5.37788180	      0.28698381	      2.99030981	    -14.65062160	     -0.82221244	     32.57771990	     45.86173371	      0.00000000	      0.00000000	     10.16540635	    -12.59125942	    -11.79288185	     48.08958681	     46.64754307	      0.00000000	      0.00000000
     51.56814286	     -2.20026733	     -3.62871493	     -0.36256387	      1.10612680	      0.93082752	      0.48839331	     15.86010764	      0.54184405	    -11.18124902	     18.22076118	     18.22076118	      6.52473356	      0.66749789	     -6.51153856	     12.31956704	    -11.73851347	     -5.12810440	     45.50200502	     45.50200502	      8.97305430	    -14.78366177	     -7.60202354	     -8.63517828	      5.59791614	      1.26329885	      3.68836787	    -15.35537505	     -0.83714289	     35.05758964	     45.77047361	      0.00000000	      0.00000000	     11.79440819	    -11.97820687	     -8.84251759	     41.55113283	     46.32701537	      0.00000000	      0.00000000
     51.58142857	     -2.12266691	     -3.85760020	      0.09069373	      1.10520179	      0.93111472	      0.49069117	     15.23657927	      0.87693407	    -11.77435651	     17.86879333	     17.86879333	      6.73547711	      0.96569669	     -6.60692791	     14.61018384	    -12.30766388	     -3.72799793	     49.34557458	     49.34557458	      7.28971533	    -15.37509233	     -7.34170788	     -8.77296298	      5.89002088	      1.33109718	      5.65777674	    -15.69905025	     -1.03477291	     36.15934213	     45.75334875	      0.00000000	      0.00000000	     10.92772736	    -11.44109544	     -8.42834028	     40.55823157	     46.26603146	      0.00000000	      0.00000000
     51.59471429	     -2.06471848	     -3.91362085	      0.50424537	      1.10404450	      0.93138477	      0.49265462	     14.69671315	      0.94939778	    -12.58498702	     17.60038325	     17.60038325	      6.84135894	      1.70328592	     -7.08460753	     16.99717209	    -12.52357077	     -2.32415136	     53.13143572	     53.13143572	      7.05535167	    -15.18066452	     -3.62479886	     -8.89346044	      6.04920870	      1.71321106	      7.13021163	    -16.30660821	     -0.88118992	     38.47872999	     45.66623447	      0.00000000	      0.00000000	     11.05237163	    -10.96358855	     -6.54481108	     37.16308716	     46.04964805	      0.00000000	      0.00000000
     51.60800000	     -1.99887502	     -4.00506744	      0.86795260	      1.10287327	      0.93164753	      0.49462097	     14.14929439	      1.13539603	    -13.10231039	     17.31310973	     17.31310973	      7.03083354	      2.03102250	     -7.18770613	     19.22206103	    -12.78522737	     -1.17050288	     56.32609575	     56.32609575	      6.60264348	    -14.96933486	     -1.15152913	     -9.01390582	      6.18934703	      1.94345403	      8.93695806	    -16.78456489	     -0.82294778	     40.21510829	     45.61204404	      0.00000000	      0.00000000	     10.36189137	    -10.48640981	     -5.48412303	     35.58506591	     45.92033385	      0.00000000	      0.00000000
     51.62128571	     -1.80955764	     -3.96814723	      1.14628671	      1.10164364	      0.93221507	      0.49654877	     13.52709947	      1.21909306	    -13.29485615	     17.11012037	     17.11012037	      7.26047054	      2.14233227	     -7.21574191	     20.99529660	    -12.94609560	     -0.37404799	     58.64816877	     58.64816877	      5.53741631	    -15.02254427	     -1.01586394	     -9.39975159	      6.15271643	      2.55214224	     11.01757827	    -17.31568744	     -1.00096367	     41.06906950	     45.60315353	      0.00000000	      0.00000000	      9.55139419	     -9.78198303	     -5.27780899	     35.06999650	     45.88180785	      0.00000000	      0.00000000
     51.63457143	     -1.90701686	     -4.13643525	      1.58444575	      1.10025541	      0.93234555	      0.49816639	     13.15877119	      1.43830562	    -14.05285850	     16.78836763	     16.78836763	      7.37606522	      2.69560626	     -7.30848258	     23.29365190	    -13.13394812	      0.73521798	     60.88813553	     60.88813553	      6.24279587	    -14.44254649	      2.93359456	     -9.31028862	      6.41734861	      2.34791231	     12.88987075	    -17.74036408	     -0.31047974	     43.56674455	     45.49223772	      0.00000000	      0.00000000	      8.79581334	     -9.48522031	     -4.01048794	     32.49751669	     45.72460492	      0.00000000	      0.00000000
     51.64785714	     -1.89812023	     -4.17119241	      1.91579558	      1.09889361	      0.93273136	      0.49984568	     12.67376936	      1.60236310	    -14.31116032	     16.44329171	     16.44329171	      7.52805727	      2.83307090	     -7.28473842	     25.09637279	    -13.24375332	      1.44709775	     62.13260995	     62.13260995	      5.77604082	    -14.51193114	      3.15060290	     -9.37832589	      6.45533845	      2.42809372	     15.04763982	    -17.94335027	     -0.48578878	     44.83145692	     45.46815418	      0.00000000	      0.00000000	      7.61063788	     -9.04684363	     -3.76999609	     31.72249082	     45.67625307	      0.00000000	      0.00000000
     51.66114286	     -1.90517030	     -4.12659278	      2.21109628	      1.09747248	      0.93325221	      0.50137488	     12.19926942	      1.67711130	    -14.62056166	     16.08009260	     16.08009260	      7.66853761	      2.98338587	     -7.27505508	     26.68195032	    -13.29263546	      1.85005245	     62.64479931	     62.64479931	      5.67090564	    -14.67246448	      3.50168440	     -9.51095989	      6.41792487	      2.53093054	     17.26855489	    -18.17252331	     -0.57810588	     46.27682116	     45.43369861	      0.00000000	      0.00000000	      6.43838276	     -8.60972764	     -3.50540953	     30.87574974	     45.62450539	      0.00000000	      0.00000000
     51.67442857	     -1.92514519	     -4.04011478	      2.50680189	      1.09602620	      0.93380133	      0.50279395	     11.71653896	      1.71680709	    -14.85594792	     15.66952052	     15.66952052	      7.80197999	      3.12891649	     -7.26537701	     28.11356075	    -13.27089546	      2.12854839	     62.52400436	     62.52400436	      5.72802860	    -14.88725442	      3.84940929	     -9.59301204	      6.32531880	      2.66061305	     19.38931201	    -18.38525659	     -0.62576589	     47.77663240	     45.39452878	      0.00000000	      0.00000000	      5.26743353	     -8.19252436	     -3.25922866	     30.07267770	     45.57431745	      0.00000000	      0.00000000
     51.68771429	     -1.95812169	     -3.90643244	      2.81858906	      1.09457554	      0.93441565	      0.50405281	     11.20756905	      1.71156951	    -15.09055595	     15.18127082	     15.18127082	      7.88698897	      3.28568522	     -7.27019356	     29.35408048	    -13.17824077	      2.24839927	     61.73459134	     61.73459134	      5.96798590	    -15.16071961	      4.29575865	     -9.67763425	      6.17176917	      2.68270210	     21.43118944	    -18.55739124	     -0.55326569	     49.62253145	     45.33773768	      0.00000000	      0.00000000	      4.05645865	     -7.84250863	     -2.96756003	     29.24448644	     45.51774682	      0.00000000	      0.00000000
     51.70100000	     -2.02103181	     -3.78117584	      3.13741887	      1.09308845	      0.93497628	      0.50519952	     10.72057543	      1.71827160	    -15.29807606	     14.66931174	     14.66931174	      7.95709797	      3.39350993	     -7.29896666	     30.43535027	    -13.06295437	      2.26659649	     60.32664271	     60.32664271	      6.26225128	    -15.48798983	      4.70776057	     -9.73991648	      6.02796624	      2.79227612	     23.36341343	    -18.77677001	     -0.49195466	     51.49292920	     45.28094966	      0.00000000	      0.00000000	      2.87836323	     -7.49412173	     -2.69099116	     28.55313762	     45.46276888	      0.00000000	      0.00000000
     51.71428571	     -2.10480973	     -3.66551082	      3.47215618	      1.09153879	      0.93551004	      0.50619784	     10.24761917	      1.73517793	    -15.50660190	     14.12963642	     14.12963642	      8.00715145	      3.48425339	     -7.37076748	     31.34131835	    -12.92773232	      2.17768286	     58.31170296	     58.31170296	      6.55245308	    -15.80125335	      5.14751926	     -9.78518478	      5.89644862	      2.88771794	     25.22014913	    -19.01314003	     -0.45569710	     53.49890606	     45.22115109	      0.00000000	      0.00000000	      1.71951956	     -7.16773706	     -2.40397683	     27.95324674	     45.40572205	      0.00000000	      0.00000000
     51.72757143	     -2.22393284	     -3.53595385	      3.79730552	      1.08999850	      0.93590013	      0.50702659	      9.78273149	      1.73283941	    -15.72081496	     13.52208877	     13.52208877	      7.89265185	      3.57724179	     -7.85540711	     32.08675695	    -12.74094514	      1.98015303	     55.79560041	     55.79560041	      6.94864962	    -16.01355114	      5.77879222	     -9.83891543	      5.76809070	      3.37431293	     26.37080803	    -19.75223302	     -0.14429663	     57.00237162	     45.11116284	      0.00000000	      0.00000000	      0.72182576	     -6.90961814	     -1.46416173	     27.55843366	     45.26919301	      0.00000000	      0.00000000
